<svg xmlns="http://www.w3.org/2000/svg" viewBox="0 0 100 100"><title>Capa 2 (2)</title><g id="Capa_2" data-name="Capa 2"><g id="Capa_1-2" data-name="Capa 1"><g id="Capa_2-2" data-name="Capa 2"><g id="Capa_1-2-2" data-name="Capa 1-2"><path d="M50,0a50,50,0,1,0,50,50A50,50,0,0,0,50,0ZM30.39,55.66,44.87,70.14,36.23,73l-4.34-4.35-4.35-4.35Zm-6.88,21,2.68-8.2.23.26,2.87,2.7L32,74.08l.09.23L23.91,77a.33.33,0,0,1-.4-.21A.49.49,0,0,1,23.51,76.61ZM40.38,60.12l-7.29-7.28L48.55,37.35l14.6,14.59L47.66,67.4Zm23-23,7.28,7.28-.49.49-3.45,3.46v0l-.7.66-.14.17L58.6,41.9l-7.28-7.31.17-.15,4.63-4.66v0Zm12.29,2.3-2.25,2.22-7.28-7.28-7.28-7.28L61.1,24.8a6.08,6.08,0,0,1,8.59,0l0,0,6,6A6.07,6.07,0,0,1,75.7,39.39Z" style="fill:#18c412"/><path d="M50,3.81A46.09,46.09,0,1,0,96.09,49.9,46.08,46.08,0,0,0,50,3.81ZM23.91,77a.33.33,0,0,1-.4-.21.49.49,0,0,1,0-.17l2.68-8.2.23.26,2.87,2.7L32,74.08l.09.23Zm12.32-4-4.34-4.35-4.35-4.35,2.85-8.6L44.87,70.14ZM47.66,67.4l-7.28-7.28-7.29-7.28L48.55,37.35l14.6,14.59ZM70.2,44.86l-3.45,3.46v0l-.7.66-.14.17L58.6,41.9l-7.28-7.31.17-.15,4.63-4.66v0l7.29,7.28,7.28,7.28Zm5.5-5.47-2.25,2.22-7.28-7.28-7.28-7.28L61.1,24.8a6.08,6.08,0,0,1,8.59,0l0,0,6,6A6.07,6.07,0,0,1,75.7,39.39Z" style="fill:#30dd32"/></g></g></g></g></svg>