<svg xmlns="http://www.w3.org/2000/svg" viewBox="0 0 100.13 100"><title>Recurso 22</title><g id="Capa_2" data-name="Capa 2"><g id="Capa_1-2" data-name="Capa 1"><circle cx="50" cy="50" r="50" style="fill:#323232"/><path d="M99.92,52.7l-.1-.1c0,.64,0,1.1,0,1.25-.06.9-.16,1.79-.27,2.68C97.32,74.37,86.35,89,70.57,95.58l-.59.26-1,.45C68,96.68,67,97,66,97.37l-1.17.38c-.37.12-.74.23-1.12.33-.83.24-1.68.46-2.53.66L61,98.52,30.07,71.11l-2.81-2.5c5.34-5.59,9.42,5.16,16.89-6.67.08-.12.15-.25.23-.38s.25-.4.37-.61c4.71-8.08,1.21-35.53,10-34.86l.55,0c6,.17,9.81-6.35,15.6-7.08L100,48.73c0,.42,0,.85,0,1.27C100,50.91,100,51.81,99.92,52.7Z" style="fill:#222"/><path d="M61,98.52l.24.22h0a7,7,0,0,1-1.08-.06Z" style="fill:#222"/><path d="M100.05,49.14s0,.2,0,.86c0-.42,0-.85,0-1.27h0C100,48.9,100,49,100.05,49.14Z" style="fill:#222"/><path d="M57.06,60.07c1.42,1.2,2.74,3.65,2.74,7.39s-.19,8.84-.31,11.9a1.73,1.73,0,0,1-.93,1.48A19.2,19.2,0,0,1,50.19,83h-.71A19.15,19.15,0,0,1,41,80.77,1.73,1.73,0,0,1,40,79.34c0-.52-.07-1.09-.1-1.69-.13-2-.25-4.36-.27-6-4,.84-6.83.44-8.88-.45h0A8.67,8.67,0,0,1,26,66.27c-1.85-4.61-4.52-5.84-4.52-5.84C17.79,58,21.76,58,21.76,58a7.15,7.15,0,0,1,3.62,1.32A9.5,9.5,0,0,1,28,62.12c3.62,6.11,9.51,4.34,11.83,3.32a8.49,8.49,0,0,1,2.57-5.34c-9-1-18.5-4.43-18.5-19.73a15.22,15.22,0,0,1,4.18-10.71,13,13,0,0,1-.48-7.85c.43-1,.89-1.9,1.37-2.8,1.24-.08,4.63.19,10.64,4.18a38.87,38.87,0,0,1,20.31,0c6.38-4.27,9.82-4.28,10.81-4.16.31.57.61,1.16.89,1.76a13.78,13.78,0,0,1-.17,8.87A15.3,15.3,0,0,1,75.6,40.37C75.6,55.71,66.1,59.09,57.06,60.07Z" style="fill:#fff"/><path d="M100.05,49.14c.06,0,.14.92,0,0Z" style="fill:#222"/><path d="M99.82,52.6l.1.1c0,.38,0,.77-.07,1.15C99.86,53.7,99.85,53.24,99.82,52.6Z" style="fill:#222"/></g></g></svg>