<svg xmlns="http://www.w3.org/2000/svg" viewBox="0 0 100 100"><title>instagram</title><g id="Capa_2" data-name="Capa 2"><g id="Capa_1-2" data-name="Capa 1"><circle cx="50" cy="50" r="50" style="fill:#6c27b3"/><path d="M73.19,26a83.83,83.83,0,0,1-18.48.13c-8.75-.67-21.54-4.71-26.26,3.37C20.88,42.4,24.61,59,26.38,73.62L52.69,99.93A50,50,0,0,0,99.93,52.7Z" style="fill:#501a96"/><path d="M61.57,21.38H38.43a17.07,17.07,0,0,0-17,17.05V61.57A17.07,17.07,0,0,0,38.43,78.62H61.57A17.07,17.07,0,0,0,78.62,61.57V38.43a17.07,17.07,0,0,0-17.05-17ZM72.86,61.57A11.28,11.28,0,0,1,61.57,72.86H38.43A11.29,11.29,0,0,1,27.14,61.57V38.43A11.3,11.3,0,0,1,38.43,27.14H61.57A11.29,11.29,0,0,1,72.86,38.43V61.57Z" style="fill:#fff"/><path d="M50,35.2A14.8,14.8,0,1,0,64.8,50,14.82,14.82,0,0,0,50,35.2Zm0,23.85a9,9,0,1,1,9-9,9,9,0,0,1-9,9Z" style="fill:#fff"/><path d="M68.38,35.31a3.55,3.55,0,1,1-3.55-3.55,3.54,3.54,0,0,1,3.55,3.55Z" style="fill:#fff"/></g></g></svg>