<svg xmlns="http://www.w3.org/2000/svg" viewBox="0 0 100 100"><title>messenger</title><g id="Capa_2" data-name="Capa 2"><g id="Capa_1-2" data-name="Capa 1"><path d="M50,18.75c-17.26,0-31.25,13-31.25,28.93A28.12,28.12,0,0,0,30.39,70.21v11L41,75.41a33.36,33.36,0,0,0,9,1.21c17.26,0,31.25-13,31.25-28.93S67.26,18.75,50,18.75Z" style="fill:#1e88e5"/><polygon points="53.1 57.72 45.15 49.23 29.62 57.72 46.7 39.58 54.85 48.07 70.19 39.58 53.1 57.72" style="fill:#fafafa"/><g id="Capa_1-2-2" data-name="Capa 1-2"><polygon points="50 0 50 8.08 91.92 8.08 91.92 91.92 50 91.92 50 100 100 100 100 0 50 0" style="fill:#1e88e5"/><polygon points="8.08 91.92 8.08 8.08 50 8.08 50 0 0 0 0 100 50 100 50 91.92 8.08 91.92" style="fill:#1458c8"/></g></g></g></svg>