<svg xmlns="http://www.w3.org/2000/svg" viewBox="0 0 100 100"><title>Capa 2 (3)</title><g id="Capa_2" data-name="Capa 2"><g id="Capa_1-2" data-name="Capa 1"><g id="Capa_2-2" data-name="Capa 2"><g id="Capa_1-2-2" data-name="Capa 1-2"><path d="M50,0a50,50,0,1,0,50,50A50,50,0,0,0,50,0ZM72,64.26a8.64,8.64,0,1,1-7.72-9.5,9.32,9.32,0,0,1,2.6.68.94.94,0,0,0,1.24-.5.62.62,0,0,0,0-.19.58.58,0,0,0,0-.19V35.47a1,1,0,0,0-.32-.71,1,1,0,0,0-.77-.23L40.17,38.37a1,1,0,0,0-.83,1V68.2a8.67,8.67,0,1,1-8.67-8.67h0a8.74,8.74,0,0,1,3.49.74,1,1,0,0,0,1.24-.5h0a.81.81,0,0,0,0-.38V28.61L72,23.14Z" style="fill:#00b5e2"/><path d="M50,3.81A46.09,46.09,0,1,0,96.09,49.9,46.08,46.08,0,0,0,50,3.81ZM72,64.26a8.64,8.64,0,1,1-7.72-9.5,9.32,9.32,0,0,1,2.6.68.94.94,0,0,0,1.24-.5.62.62,0,0,0,0-.19.58.58,0,0,0,0-.19V35.47a1,1,0,0,0-.32-.71,1,1,0,0,0-.77-.23L40.17,38.37a1,1,0,0,0-.83,1V68.2a8.67,8.67,0,1,1-8.67-8.67h0a8.74,8.74,0,0,1,3.49.74,1,1,0,0,0,1.24-.5h0a.81.81,0,0,0,0-.38V28.61L72,23.14Z" style="fill:#60cbe8"/></g></g></g></g></svg>