<svg xmlns="http://www.w3.org/2000/svg" viewBox="0 0 100 100"><title>software_1</title><g id="Capa_2" data-name="Capa 2"><g id="Capa_1-2" data-name="Capa 1"><path d="M50,0a50,50,0,1,0,50,50A50,50,0,0,0,50,0Zm0,96A46,46,0,1,1,96,50,46,46,0,0,1,50,96Z" style="fill:#702f8a"/><path d="M50,4A46,46,0,1,0,96,50,46,46,0,0,0,50,4ZM75,58.15a3.22,3.22,0,0,1-3.18,3.25H54.52v.76c0,.23,0,.46,0,.69a9,9,0,0,0,4.59,7.38h3a3.63,3.63,0,0,1,3.57,3.55v.1A1.14,1.14,0,0,1,64.57,75H35.42a1.14,1.14,0,0,1-1.1-1.13v-.1a3.63,3.63,0,0,1,3.57-3.55h3a9,9,0,0,0,4.59-7.38c0-.23,0-.46,0-.69V61.4H28.17A3.22,3.22,0,0,1,25,58.15v-30A3.21,3.21,0,0,1,28.17,25H72a3.24,3.24,0,0,1,3,3.17Z" style="fill:#963cbd"/><path d="M67.72,33.22V52.86a1.94,1.94,0,0,1-1.86,2H34.36a2,2,0,0,1-1.89-2V33.25a1.91,1.91,0,0,1,1.89-1.95H65.78A1.92,1.92,0,0,1,67.72,33.22Z" style="fill:#963cbd"/></g></g></svg>