<svg xmlns="http://www.w3.org/2000/svg" viewBox="0 0 100 100"><title>twitter</title><g id="Capa_2" data-name="Capa 2"><g id="Capa_1-2" data-name="Capa 1"><circle cx="50" cy="50" r="50" style="fill:#2488ff"/><path d="M76.76,27.21c-5.21,4.53-10.4,8.49-14.64,14C51.7,53.82,39,71.66,21.62,69l31,30.93A50,50,0,0,0,100,50.45Z" style="fill:#006df0"/><path d="M77.71,31.73a21.85,21.85,0,0,1-3.95,1.33A12.15,12.15,0,0,0,77,27.89a.64.64,0,0,0-.94-.75,22.59,22.59,0,0,1-6,2.49,1.57,1.57,0,0,1-.37.05,1.61,1.61,0,0,1-1.06-.4,12.32,12.32,0,0,0-8.17-3.09,13.16,13.16,0,0,0-3.9.61,11.94,11.94,0,0,0-8.06,8.61,13.27,13.27,0,0,0-.3,4.55.42.42,0,0,1-.11.34.44.44,0,0,1-.34.16h0A32.33,32.33,0,0,1,25.44,28.57a.65.65,0,0,0-1.06.08,12.37,12.37,0,0,0,2,15,11.52,11.52,0,0,1-2.82-1.09.63.63,0,0,0-.95.55,12.38,12.38,0,0,0,7.2,11.39h-.26a11.27,11.27,0,0,1-2.08-.2.64.64,0,0,0-.73.83,12.34,12.34,0,0,0,9.77,8.41,22.76,22.76,0,0,1-12.76,3.88H22.33a.94.94,0,0,0-.92.72,1,1,0,0,0,.47,1.08,33.89,33.89,0,0,0,17,4.59,34.28,34.28,0,0,0,14.54-3.09,32.22,32.22,0,0,0,10.64-8A34.88,34.88,0,0,0,70.6,51.83a34.43,34.43,0,0,0,2.21-11.94V39.7a2.09,2.09,0,0,1,.79-1.63,24.44,24.44,0,0,0,4.91-5.39.65.65,0,0,0-.8-.95Z" style="fill:#fff"/></g></g></svg>