<svg xmlns="http://www.w3.org/2000/svg" viewBox="0 0 100 100"><title>youtube</title><g id="Capa_2" data-name="Capa 2"><g id="Capa_1-2" data-name="Capa 1"><circle cx="50" cy="50" r="50" style="fill:#d22215"/><path d="M75.17,33.27c-1.5.46-3.07.85-4.63,1.24-11.11,2.36-25.93-4-32.32,6.4-5.34,8.3-7,18.68-13.09,26.11L57.54,99.43A50,50,0,0,0,99.43,57.54Z" style="fill:#a81411"/><path d="M66.73,29.75H33.27A11.88,11.88,0,0,0,21.39,41.64V58.36A11.88,11.88,0,0,0,33.27,70.25H66.73A11.88,11.88,0,0,0,78.61,58.36V41.64A11.88,11.88,0,0,0,66.73,29.75Zm-8,21.06L43,58.28a.63.63,0,0,1-.9-.57V42.32a.62.62,0,0,1,.91-.56L58.7,49.69a.62.62,0,0,1,0,1.12Z" style="fill:#fff"/></g></g></svg>